<?xml version="1.0" encoding="iso-8859-1"?>
<!-- Generator: Adobe Illustrator 16.0.0, SVG Export Plug-In . SVG Version: 6.00 Build 0)  -->
<!DOCTYPE svg PUBLIC "-//W3C//DTD SVG 1.1//EN" "http://www.w3.org/Graphics/SVG/1.1/DTD/svg11.dtd">
<svg version="1.1" xmlns="http://www.w3.org/2000/svg" xmlns:xlink="http://www.w3.org/1999/xlink" x="0px" y="0px" width="708px"
	 height="323.233px" viewBox="0 0 708 323.233" style="enable-background:new 0 0 708 323.233;" xml:space="preserve">
<g id="Layer_3">
</g>
<g id="Layer_1" style="display:none;">
</g>
<g id="Layer_2">
	<path style="fill:#FFFFFF;" d="M673.104,0.233C671.712,0.083,670.3,0,668.867,0c-21.518,0-38.961,17.443-38.961,38.961
		c0,2.995,0.35,5.907,0.989,8.708c-19.2,3.457-34.204,18.96-36.907,38.412c-7.234,0.764-13.755,3.908-18.777,8.629
		c-10.847-10.392-25.551-16.788-41.759-16.788c-33.353,0-60.39,27.037-60.39,60.39c0,5.307,0.69,10.451,1.976,15.354
		c-8.432,5.685-14.423,14.706-16.088,25.172c-4.476-1.314-9.207-2.032-14.108-2.032c-11.205,0-21.549,3.687-29.886,9.912
		c-4.223-2.97-9.365-4.719-14.919-4.719c-4.951,0-9.577,1.386-13.515,3.79c-3.163-19.815-20.326-34.958-41.031-34.958
		c-21.888,0-39.811,16.924-41.427,38.399c-13.911,2.681-25.272,12.516-30.098,25.531c-3.457-1.844-7.401-2.892-11.592-2.892
		c-9.084,0-17.017,4.912-21.3,12.222c-1.721-0.349-3.501-0.533-5.324-0.533c-3.325,0-6.506,0.615-9.44,1.729
		c-2.605-3.227-6.101-5.702-10.112-7.058c0.044-0.708,0.073-1.42,0.073-2.139c0-18.828-15.264-34.092-34.092-34.092
		c-16.455,0-30.188,11.66-33.387,27.168c-0.15-0.003-0.3-0.012-0.451-0.012c-3.869,0-7.53,0.885-10.795,2.463
		c-4.428-9.077-13.744-15.333-24.523-15.333c-15.063,0-27.273,12.211-27.273,27.272c0,0.152,0.009,0.302,0.012,0.453
		c-4.127,0.836-7.847,2.79-10.832,5.532c-4.407-5.245-11.013-8.582-18.4-8.582c-6.845,0-13.016,2.867-17.392,7.46
		c-3.854-2.262-8.337-3.563-13.128-3.563c-14.345,0-25.974,11.629-25.974,25.974c0,0.135,0.008,0.268,0.01,0.402H0v71h708v-35v-36
		v-251H673.104z"/>
</g>
</svg>
