<?xml version="1.0" encoding="iso-8859-1"?>
<!-- Generator: Adobe Illustrator 16.0.0, SVG Export Plug-In . SVG Version: 6.00 Build 0)  -->
<!DOCTYPE svg PUBLIC "-//W3C//DTD SVG 1.1//EN" "http://www.w3.org/Graphics/SVG/1.1/DTD/svg11.dtd">
<svg version="1.1" xmlns="http://www.w3.org/2000/svg" xmlns:xlink="http://www.w3.org/1999/xlink" x="0px" y="0px"
	 width="815.248px" height="401px" viewBox="0 0 815.248 401" style="enable-background:new 0 0 815.248 401;" xml:space="preserve"
	>
<g id="Layer_3">
</g>
<g id="Layer_1" style="display:none;">
</g>
<g id="Layer_2">
	<path style="fill:#FFFFFF;" d="M750.855,0c-0.942-0.079-1.893-0.129-2.855-0.129c-18.648,0-33.766,15.117-33.766,33.766
		c0,4.451,0.869,8.696,2.435,12.587c-6.802,3.65-12.559,8.985-16.731,15.441c-4.535-4.282-10.648-6.913-17.379-6.913
		c-13.986,0-25.324,11.338-25.324,25.324c0,2.349,0.326,4.62,0.925,6.778c-3.882,0.786-7.592,2.044-11.068,3.71
		c-13.604-19.701-36.331-32.619-62.085-32.619c-41.647,0-75.409,33.762-75.409,75.41c0,13.679,3.688,26.495,10.055,37.556
		c-7.623,6.779-12.403,16.656-12.403,27.66c0,0.011,0,0.021,0,0.031c-26,2.728-47.668,19.625-57.273,42.809
		c-8.883-7.096-20.15-11.348-32.403-11.348c-3.938,0-7.775,0.453-11.463,1.283c-11.816-17.24-31.651-28.556-54.131-28.556
		c-21.981,0-41.423,10.824-53.323,27.422c-9.301-6.105-20.422-9.669-32.38-9.669c-17.706,0-33.583,7.798-44.413,20.134
		c-1.399-0.262-2.841-0.404-4.316-0.404c-7.836,0-14.765,3.861-19.003,9.78c-9.414-6.984-21.068-11.119-33.69-11.119
		c-19.611,0-36.889,9.976-47.046,25.127c-6.165-4.239-13.629-6.725-21.676-6.725c-9.555,0-18.285,3.506-24.995,9.29
		c-4.137-1.858-8.721-2.9-13.55-2.9c-8.576,0-16.391,3.26-22.272,8.607c-3.365-1.794-7.206-2.814-11.286-2.814
		c-10.999,0-20.266,7.394-23.116,17.48H0.248v3.116C0.087,291.236,0,292.381,0,293.545s0.087,2.309,0.248,3.429V401h748h67V0
		H750.855z"/>
</g>
</svg>
