<?xml version="1.0"?>
<svg xmlns="http://www.w3.org/2000/svg" xmlns:xlink="http://www.w3.org/1999/xlink" viewBox="0 0 64 64" width="512" height="512"><linearGradient id="a" gradientUnits="userSpaceOnUse" x1="2.125" x2="61.813" y1="12" y2="12"><stop offset="0" stop-color="#4761ac"/><stop offset="1" stop-color="#54c2ef"/></linearGradient><linearGradient id="b" x2="61.813" xlink:href="#a" y1="3" y2="3"/><linearGradient id="c" x2="61.813" xlink:href="#a" y1="7" y2="7"/><linearGradient id="d" x2="61.813" xlink:href="#a" y1="5" y2="5"/><linearGradient id="e" x2="61.813" xlink:href="#a" y1="52" y2="52"/><linearGradient id="f" x2="61.813" xlink:href="#a" y1="61" y2="61"/><linearGradient id="g" x2="61.813" xlink:href="#a" y1="57" y2="57"/><linearGradient id="h" x2="61.813" xlink:href="#a" y1="59" y2="59"/><linearGradient id="i" x2="61.813" xlink:href="#a" y1="53" y2="53"/><linearGradient id="j" x2="61.813" xlink:href="#a" y1="55" y2="55"/><linearGradient id="k" x2="61.813" xlink:href="#a" y1="9" y2="9"/><linearGradient id="l" x2="61.813" xlink:href="#a" y1="11" y2="11"/><linearGradient id="m" x2="61.813" xlink:href="#a" y1="32" y2="32"/><linearGradient id="n" x2="61.813" xlink:href="#a" y1="28" y2="28"/><path d="m3 13a3 3 0 0 1 3 3 1 1 0 0 0 2 0 3 3 0 0 1 3-3 1 1 0 0 0 0-2 3 3 0 0 1 -3-3 1 1 0 0 0 -2 0 3 3 0 0 1 -3 3 1 1 0 0 0 0 2zm4-2a5.07 5.07 0 0 0 1 1 5.07 5.07 0 0 0 -1 1 5.07 5.07 0 0 0 -1-1 5.07 5.07 0 0 0 1-1z" fill="url(#a)"/><path d="m16 2h2v2h-2z" fill="url(#b)"/><path d="m16 6h2v2h-2z" fill="url(#c)"/><path d="m14 4h2v2h-2z" fill="url(#d)"/><path d="m18 4h2v2h-2z" fill="url(#d)"/><path d="m61 51a3 3 0 0 1 -3-3 1 1 0 0 0 -2 0 3 3 0 0 1 -3 3 1 1 0 0 0 0 2 3 3 0 0 1 3 3 1 1 0 0 0 2 0 3 3 0 0 1 3-3 1 1 0 0 0 0-2zm-4 2a5.07 5.07 0 0 0 -1-1 5.07 5.07 0 0 0 1-1 5.07 5.07 0 0 0 1 1 5.07 5.07 0 0 0 -1 1z" fill="url(#e)"/><path d="m46 60h2v2h-2z" fill="url(#f)"/><path d="m46 56h2v2h-2z" fill="url(#g)"/><path d="m48 58h2v2h-2z" fill="url(#h)"/><path d="m44 58h2v2h-2z" fill="url(#h)"/><path d="m8 52h2v2h-2z" fill="url(#i)"/><path d="m12 54h2v2h-2z" fill="url(#j)"/><path d="m50 8h2v2h-2z" fill="url(#k)"/><path d="m54 10h2v2h-2z" fill="url(#l)"/><path d="m11 32a21 21 0 1 0 22.844-20.907 4.049 4.049 0 0 0 -.844-.093c-.114 0-.222.024-.334.034-.223-.007-.441-.034-.666-.034a21.023 21.023 0 0 0 -21 21zm31 14a6 6 0 1 1 6-6 6.006 6.006 0 0 1 -6 6zm7.847-7.546a8 8 0 1 0 -7.847 9.546c.076 0 .149-.009.224-.011a18.863 18.863 0 0 1 -21.319-.6 3.961 3.961 0 0 0 2.095.611 4.048 4.048 0 1 0 -2.605-.99 18.961 18.961 0 0 1 9.057-33.819 3.959 3.959 0 0 0 -.452 1.809 4 4 0 0 0 8 0 3.963 3.963 0 0 0 -.259-1.377 18.914 18.914 0 0 1 6.923 3.411 4.988 4.988 0 1 0 5.168 6.184 18.774 18.774 0 0 1 1.015 15.236zm-28.847 5.546a2 2 0 1 1 2 2 2 2 0 0 1 -2-2zm12.519-30.923a1.994 1.994 0 1 1 -.853-.043c.286.01.571.021.853.043zm13.481 8.923a3 3 0 1 1 -3-3 3 3 0 0 1 3 3z" fill="url(#m)"/><path d="m24 22a6 6 0 1 0 6 6 6.006 6.006 0 0 0 -6-6zm0 10a4 4 0 1 1 4-4 4 4 0 0 1 -4 4z" fill="url(#n)"/></svg>
