<?xml version="1.0"?>
<svg xmlns="http://www.w3.org/2000/svg" xmlns:xlink="http://www.w3.org/1999/xlink" viewBox="0 0 64 64" width="512" height="512"><linearGradient id="a" gradientUnits="userSpaceOnUse" x1="2.125" x2="61.813" y1="18" y2="18"><stop offset="0" stop-color="#4761ac"/><stop offset="1" stop-color="#54c2ef"/></linearGradient><linearGradient id="b" x2="61.813" xlink:href="#a" y1="7" y2="7"/><linearGradient id="c" x2="61.813" xlink:href="#a" y1="11" y2="11"/><linearGradient id="d" x2="61.813" xlink:href="#a" y1="9" y2="9"/><linearGradient id="e" x2="61.813" xlink:href="#a" y1="55" y2="55"/><linearGradient id="f" x2="61.813" xlink:href="#a" y1="57" y2="57"/><linearGradient id="g" x2="61.813" xlink:href="#a" y1="20.5" y2="20.5"/><linearGradient id="h" x2="61.813" xlink:href="#a" y1="32" y2="32"/><linearGradient id="i" x2="61.813" xlink:href="#a" y1="9.5" y2="9.5"/><linearGradient id="j" x2="61.813" xlink:href="#a" y1="26.5" y2="26.5"/><linearGradient id="k" x2="61.813" xlink:href="#a" y1="46" y2="46"/><linearGradient id="l" x2="61.813" xlink:href="#a" y1="37" y2="37"/><linearGradient id="m" x2="61.813" xlink:href="#a" y1="33" y2="33"/><linearGradient id="n" x2="61.813" xlink:href="#a" y1="35" y2="35"/><linearGradient id="o" x2="61.813" xlink:href="#a" y1="59.5" y2="59.5"/><linearGradient id="p" x2="61.813" xlink:href="#a" y1="56" y2="56"/><path d="m11 17a3 3 0 0 1 -3-3 1 1 0 0 0 -2 0 3 3 0 0 1 -3 3 1 1 0 0 0 0 2 3 3 0 0 1 3 3 1 1 0 0 0 2 0 3 3 0 0 1 3-3 1 1 0 0 0 0-2zm-4 2a5.043 5.043 0 0 0 -1-1 5.043 5.043 0 0 0 1-1 5.043 5.043 0 0 0 1 1 5.043 5.043 0 0 0 -1 1z" fill="url(#a)"/><path d="m16 6h2v2h-2z" fill="url(#b)"/><path d="m16 10h2v2h-2z" fill="url(#c)"/><path d="m14 8h2v2h-2z" fill="url(#d)"/><path d="m18 8h2v2h-2z" fill="url(#d)"/><path d="m29 54h2v2h-2z" fill="url(#e)"/><path d="m25 56h2v2h-2z" fill="url(#f)"/><path d="m40 20.5a3.5 3.5 0 1 0 3.5-3.5 3.5 3.5 0 0 0 -3.5 3.5zm5 0a1.5 1.5 0 1 1 -1.5-1.5 1.5 1.5 0 0 1 1.5 1.5z" fill="url(#g)"/><path d="m8.278 55.692a1 1 0 0 0 1.2.186l10.852-5.919 5.834-.973a1 1 0 0 0 .829-1.1l-.936-8.418 3.235 3.235a1 1 0 0 0 .708.297h.045a1 1 0 0 0 .723-.358l4.3-5.16.192.192 4.973 5.968a1 1 0 0 0 .723.358h.044a1 1 0 0 0 .707-.293l4-4a1 1 0 0 0 .273-.9l-1.366-6.837 10.186-13.364c.01-.012.012-.027.021-.04a.992.992 0 0 0 .123-.243 1.007 1.007 0 0 0 .028-.108.9.9 0 0 0 .027-.105l1-9a1 1 0 0 0 -1.1-1.1l-9 1a.934.934 0 0 0 -.1.027 1.06 1.06 0 0 0 -.111.028 1 1 0 0 0 -.237.121c-.014.009-.03.012-.044.022l-13.377 10.178-6.83-1.366a1 1 0 0 0 -.9.273l-4 4a1 1 0 0 0 .067 1.476l5.968 4.973.19.191-5.158 4.3a1 1 0 0 0 -.067 1.476l3.234 3.234-8.417-.935a.993.993 0 0 0 -1.1.852l-.971 6.8-5.9 9.827a1 1 0 0 0 .132 1.205zm35.637-17.021-2.848 2.848-1.947-2.338 3.88-5.091zm-6.015-1.188-4.986-4.983 4.793-4.793a1 1 0 0 0 -1.414-1.414l-4.793 4.793-4.984-4.986 19.4-14.777 6.764 6.764zm15.97-27.351-.632 5.689-5.058-5.057zm-28.541 9.954 4.581.914-5.091 3.88-2.338-1.947zm2.609 10.267 5.709 5.709-3.714 4.457-6.452-6.452zm-12.081 15.162a1.006 1.006 0 0 0 .133-.373l.863-6.041 7.241.8.807 7.264-5.066.845a.984.984 0 0 0 -.314.108l-7.771 4.243z" fill="url(#h)"/><path d="m28.03 12.242a1 1 0 0 0 .97.758 1.025 1.025 0 0 0 .244-.03l8-2a1 1 0 0 0 .706-1.286l-.563-1.684h6.613a1 1 0 0 0 0-2h-8a1 1 0 0 0 -.949 1.316l.659 1.976-6.953 1.738a1 1 0 0 0 -.727 1.212z" fill="url(#i)"/><path d="m54.519 25.123a1 1 0 0 0 -.489.635l-2 8a1 1 0 0 0 .727 1.212 1.025 1.025 0 0 0 .243.03 1 1 0 0 0 .969-.758l1.738-6.952 1.976.658a1 1 0 0 0 1.317-.948v-8a1 1 0 0 0 -2 0v6.612l-1.684-.56a.987.987 0 0 0 -.797.071z" fill="url(#j)"/><path d="m61 45a3 3 0 0 1 -3-3 1 1 0 0 0 -2 0 3 3 0 0 1 -3 3 1 1 0 0 0 0 2 3 3 0 0 1 3 3 1 1 0 0 0 2 0 3 3 0 0 1 3-3 1 1 0 0 0 0-2zm-4 2a5.043 5.043 0 0 0 -1-1 5.043 5.043 0 0 0 1-1 5.043 5.043 0 0 0 1 1 5.043 5.043 0 0 0 -1 1z" fill="url(#k)"/><path d="m6 36h2v2h-2z" fill="url(#l)"/><path d="m6 32h2v2h-2z" fill="url(#m)"/><path d="m8 34h2v2h-2z" fill="url(#n)"/><path d="m4 34h2v2h-2z" fill="url(#n)"/><path d="m3.707 61.707 3-3a1 1 0 0 0 -1.414-1.414l-3 3a1 1 0 1 0 1.414 1.414z" fill="url(#o)"/><path d="m52.868 51.5a1 1 0 0 0 -1.364-.372l-1.866 1.072a5.992 5.992 0 0 0 -10.265 5.866l-1.873 1.066a1 1 0 0 0 .5 1.868.988.988 0 0 0 .5-.132l1.862-1.068a5.992 5.992 0 0 0 10.265-5.866l1.873-1.066a1 1 0 0 0 .368-1.368zm-11.868 4.5a3.994 3.994 0 0 1 6.861-2.786l-6.7 3.831a3.964 3.964 0 0 1 -.161-1.045zm8 0a3.994 3.994 0 0 1 -6.861 2.786l6.7-3.831a3.964 3.964 0 0 1 .161 1.045z" fill="url(#p)"/></svg>
