<?xml version="1.0"?>
<svg xmlns="http://www.w3.org/2000/svg" xmlns:xlink="http://www.w3.org/1999/xlink" viewBox="0 0 64 64" width="512" height="512"><linearGradient id="a" gradientUnits="userSpaceOnUse" x1="2" x2="62.084" y1="12" y2="12"><stop offset="0" stop-color="#4761ac"/><stop offset="1" stop-color="#54c2ef"/></linearGradient><linearGradient id="b" x2="62.084" xlink:href="#a" y1="3" y2="3"/><linearGradient id="c" x2="62.084" xlink:href="#a" y1="7" y2="7"/><linearGradient id="d" x2="62.084" xlink:href="#a" y1="5" y2="5"/><linearGradient id="e" x2="62.084" xlink:href="#a" y1="54" y2="54"/><linearGradient id="f" x2="62.084" xlink:href="#a" y1="61" y2="61"/><linearGradient id="g" x2="62.084" xlink:href="#a" y1="57" y2="57"/><linearGradient id="h" x2="62.084" xlink:href="#a" y1="59" y2="59"/><linearGradient id="i" x2="62.084" xlink:href="#a" y1="26" y2="26"/><linearGradient id="j" x2="62.084" xlink:href="#a" y1="22" y2="22"/><linearGradient id="k" x2="62.084" xlink:href="#a" y1="55.5" y2="55.5"/><linearGradient id="l" x2="62.084" xlink:href="#a" y1="56.5" y2="56.5"/><linearGradient id="m" x2="62.084" xlink:href="#a" y1="38" y2="38"/><path d="m3 13a3 3 0 0 1 3 3 1 1 0 0 0 2 0 3 3 0 0 1 3-3 1 1 0 0 0 0-2 3 3 0 0 1 -3-3 1 1 0 0 0 -2 0 3 3 0 0 1 -3 3 1 1 0 0 0 0 2zm4-2a5.043 5.043 0 0 0 1 1 5.043 5.043 0 0 0 -1 1 5.043 5.043 0 0 0 -1-1 5.043 5.043 0 0 0 1-1z" fill="url(#a)"/><path d="m12 2h2v2h-2z" fill="url(#b)"/><path d="m12 6h2v2h-2z" fill="url(#c)"/><path d="m10 4h2v2h-2z" fill="url(#d)"/><path d="m14 4h2v2h-2z" fill="url(#d)"/><path d="m56 58a1 1 0 0 0 2 0 3 3 0 0 1 3-3 1 1 0 0 0 0-2 3 3 0 0 1 -3-3 1 1 0 0 0 -2 0 3 3 0 0 1 -3 3 1 1 0 0 0 0 2 3 3 0 0 1 3 3zm1-5a5.043 5.043 0 0 0 1 1 5.043 5.043 0 0 0 -1 1 5.043 5.043 0 0 0 -1-1 5.043 5.043 0 0 0 1-1z" fill="url(#e)"/><path d="m48 60h2v2h-2z" fill="url(#f)"/><path d="m48 56h2v2h-2z" fill="url(#g)"/><path d="m50 58h2v2h-2z" fill="url(#h)"/><path d="m46 58h2v2h-2z" fill="url(#h)"/><path d="m7 43h8.465l3.7 5.555a1 1 0 0 0 .835.445h24a1 1 0 0 0 .832-.445l3.703-5.555h8.465a5 5 0 0 0 0-10h-3v-8a22 22 0 0 0 -44 0v8h-3a5 5 0 0 0 0 10zm36.465 4h-22.93l-2.667-4h28.264zm-11.465-42a20.023 20.023 0 0 1 20 20h-12v-3a5.006 5.006 0 0 0 -5-5v-2a1 1 0 0 0 -2 0v2h-2v-2a1 1 0 0 0 -2 0v2a5.006 5.006 0 0 0 -5 5v3h-12a20.023 20.023 0 0 1 20-20zm3 14a3 3 0 0 1 3 3v3h-12v-3a3 3 0 0 1 3-3zm-23 8h40v6h-40zm-5 8h50a3 3 0 0 1 0 6h-50a3 3 0 0 1 0-6z" fill="url(#i)"/><path d="m32 9a1 1 0 0 0 0-2 17.925 17.925 0 0 0 -15.265 8.469 1 1 0 0 0 1.7 1.062 15.932 15.932 0 0 1 13.565-7.531z" fill="url(#a)"/><path d="m28 21h2v2h-2z" fill="url(#j)"/><path d="m34 21h2v2h-2z" fill="url(#j)"/><path d="m26 56v-4a1 1 0 0 0 -2 0v4a1 1 0 0 0 2 0z" fill="url(#e)"/><path d="m31 59v-7a1 1 0 0 0 -2 0v7a1 1 0 0 0 2 0z" fill="url(#k)"/><path d="m35 61v-9a1 1 0 0 0 -2 0v9a1 1 0 0 0 2 0z" fill="url(#l)"/><path d="m39 56v-4a1 1 0 0 0 -2 0v4a1 1 0 0 0 2 0z" fill="url(#e)"/><g fill="url(#m)"><path d="m7 39h3a1 1 0 0 0 0-2h-3a1 1 0 0 0 0 2z"/><path d="m54 39h3a1 1 0 0 0 0-2h-3a1 1 0 0 0 0 2z"/><path d="m30 39h4a1 1 0 0 0 0-2h-4a1 1 0 0 0 0 2z"/></g></svg>
