<?xml version="1.0"?>
<svg xmlns="http://www.w3.org/2000/svg" xmlns:xlink="http://www.w3.org/1999/xlink" viewBox="0 0 64 64" width="512" height="512"><linearGradient id="a" gradientUnits="userSpaceOnUse" x1="2" x2="62.084" y1="13.5" y2="13.5"><stop offset="0" stop-color="#4761ac"/><stop offset="1" stop-color="#54c2ef"/></linearGradient><linearGradient id="b" x1="2" x2="62.084" xlink:href="#a" y1="29" y2="29"/><linearGradient id="c" x1="2" x2="62.084" xlink:href="#a" y1="34" y2="34"/><linearGradient id="d" x1="2" x2="62.083" xlink:href="#a" y1="33.5" y2="33.5"/><linearGradient id="e" x1="2" x2="62.084" xlink:href="#a" y1="33.5" y2="33.5"/><linearGradient id="f" x1="2" x2="62.084" xlink:href="#a" y1="32" y2="32"/><linearGradient id="g" x1="2" x2="62.084" xlink:href="#a" y1="47" y2="47"/><path d="m33 10a6.006 6.006 0 0 0 -6 6 1 1 0 0 0 2 0 4 4 0 0 1 4-4 1 1 0 0 0 0-2z" fill="url(#a)"/><path d="m29 28h2v2h-2z" fill="url(#b)"/><path d="m35 28h2v2h-2z" fill="url(#b)"/><path d="m29 37h8v-6h-8zm2-4h4v2h-4z" fill="url(#c)"/><path d="m4.071 39.372a1.006 1.006 0 0 0 .574.563.991.991 0 0 0 .355.065 1.015 1.015 0 0 0 .447-.1l6-3a1 1 0 0 0 .553-.9v-4a1 1 0 0 0 -.03-.243l-1-4a1 1 0 0 0 -1.212-.727l-4 1a1 1 0 0 0 -.706 1.286l.725 2.178-3.224 1.606a1 1 0 0 0 -.482 1.267zm3.376-6.472a1 1 0 0 0 .5-1.211l-.657-1.981 1.982-.495.728 2.91v3.259l-4.476 2.238-1.253-3.137z" fill="url(#d)"/><path d="m63.447 33.1-3.224-1.611.725-2.178a1 1 0 0 0 -.706-1.286l-4-1a1 1 0 0 0 -1.212.727l-1 4a1 1 0 0 0 -.03.248v4a1 1 0 0 0 .553.9l6 3a1 1 0 0 0 .447.1.991.991 0 0 0 .355-.065 1.006 1.006 0 0 0 .574-.563l2-5a1 1 0 0 0 -.482-1.272zm-2.971 4.52-4.476-2.238v-3.259l.728-2.91 1.982.495-.658 1.976a1 1 0 0 0 .5 1.211l3.176 1.588z" fill="url(#e)"/><path d="m58 42h-12a1 1 0 0 0 -1 1v9h-5v-7a1 1 0 0 0 -1-1h-12a1 1 0 0 0 -1 1v7h-7.974a5.026 5.026 0 0 1 -1.98-9.646l8.954-3.838v.484a1 1 0 0 0 1 1h14a1 1 0 0 0 1-1v-4.691l9.737 2.656a1.022 1.022 0 0 0 .263.035 1 1 0 0 0 1-1v-4a1 1 0 0 0 -.726-.961l-6.274-1.793v-4.246a1 1 0 0 0 -1-1v-21a1 1 0 0 0 -1-1h-20a1 1 0 0 0 -1 1v21a1 1 0 0 0 -1 1v4.246l-6.274 1.793a1 1 0 0 0 -.726.961v4a1 1 0 0 0 1 1 1.022 1.022 0 0 0 .263-.035l9.737-2.656v2.032l-9.741 4.175a7.026 7.026 0 0 0 2.767 13.484h7.974v2h-1a1 1 0 0 0 -1 1v4a1 1 0 0 0 1 1h16a1 1 0 0 0 1-1v-4a1 1 0 0 0 -1-1h-1v-2h5v1a1 1 0 0 0 1 1h.613l-1.561 4.684a1 1 0 0 0 .948 1.316h12a1 1 0 0 0 .948-1.316l-1.561-4.684h.613a1 1 0 0 0 1-1v-12a1 1 0 0 0 -1-1zm-19-4h-12v-12h12zm-14-22a8 8 0 1 1 8 8 8.009 8.009 0 0 1 -8-8zm25 16.754v1.937l-9-2.455v-6.236h2v4a1 1 0 0 0 .726.961zm-11.026-8.754a10.053 10.053 0 0 0 3.026-3.67v3.67zm3.026-20v7.67a9.978 9.978 0 0 0 -18 0v-7.67zm-18 16.33a10.053 10.053 0 0 0 3.026 3.67h-3.026zm-8 14.361v-1.937l6.274-1.793a1 1 0 0 0 .726-.961v-4h2v6.236zm12 11.309h4v10h-4zm-2 12h6v2h-6zm14 2h-6v-2h6zm-6-4v-10h4v10zm13-12h10v10h-10zm5 13.839-.613-1.839h1.226zm-4.612 2.161 1.333-4h.558l1.333 4zm9.224 0h-3.224l1.333-4h.558z" fill="url(#f)"/><g fill="url(#g)"><path d="m49 46h2v2h-2z"/><path d="m53 46h2v2h-2z"/></g></svg>
