<?xml version="1.0"?>
<svg xmlns="http://www.w3.org/2000/svg" xmlns:xlink="http://www.w3.org/1999/xlink" viewBox="0 0 64 64" width="512" height="512"><linearGradient id="a" gradientUnits="userSpaceOnUse" x1="2" x2="62.084" y1="12" y2="12"><stop offset="0" stop-color="#4761ac"/><stop offset="1" stop-color="#54c2ef"/></linearGradient><linearGradient id="b" x2="62.084" xlink:href="#a" y1="3" y2="3"/><linearGradient id="c" x2="62.084" xlink:href="#a" y1="7" y2="7"/><linearGradient id="d" x2="62.084" xlink:href="#a" y1="5" y2="5"/><linearGradient id="e" x2="62.084" xlink:href="#a" y1="6" y2="6"/><linearGradient id="f" x2="62.084" xlink:href="#a" y1="8" y2="8"/><linearGradient id="g" x2="62.084" xlink:href="#a" y1="39" y2="39"/><linearGradient id="h" x2="62.084" xlink:href="#a" y1="41" y2="41"/><linearGradient id="i" x2="62.084" xlink:href="#a" y1="35" y2="35"/><linearGradient id="j" x2="62.084" xlink:href="#a" y1="19.5" y2="19.5"/><linearGradient id="k" x2="62.084" xlink:href="#a" y1="40" y2="40"/><linearGradient id="l" x2="62.084" xlink:href="#a" y1="50" y2="50"/><linearGradient id="m" x2="62.084" xlink:href="#a" y1="38" y2="38"/><path d="m53 13a3 3 0 0 1 3 3 1 1 0 0 0 2 0 3 3 0 0 1 3-3 1 1 0 0 0 0-2 3 3 0 0 1 -3-3 1 1 0 0 0 -2 0 3 3 0 0 1 -3 3 1 1 0 0 0 0 2zm4-2a5.043 5.043 0 0 0 1 1 5.043 5.043 0 0 0 -1 1 5.043 5.043 0 0 0 -1-1 5.043 5.043 0 0 0 1-1z" fill="url(#a)"/><path d="m48 2h2v2h-2z" fill="url(#b)"/><path d="m48 6h2v2h-2z" fill="url(#c)"/><path d="m50 4h2v2h-2z" fill="url(#d)"/><path d="m46 4h2v2h-2z" fill="url(#d)"/><path d="m6 5h2v2h-2z" fill="url(#e)"/><path d="m10 7h2v2h-2z" fill="url(#f)"/><path d="m10 38h2v2h-2z" fill="url(#g)"/><path d="m6 40h2v2h-2z" fill="url(#h)"/><path d="m23 50a2.981 2.981 0 0 0 2-.78v6.78h-1a1 1 0 0 0 -1 1v4a1 1 0 0 0 1 1h16a1 1 0 0 0 1-1v-4a1 1 0 0 0 -1-1h-1v-6.78a2.984 2.984 0 0 0 4.7-3.507 1 1 0 0 0 .3-.713v-14a1 1 0 0 0 -1-1v-21a1 1 0 0 0 -1-1h-20a1 1 0 0 0 -1 1v21a1 1 0 0 0 -1 1v14a.993.993 0 0 0 .3.713 2.964 2.964 0 0 0 -.3 1.287 3 3 0 0 0 3 3zm-1-6v-12h2v12zm16-12v12h-12v-12zm-14-10a8 8 0 1 1 8 8 8.009 8.009 0 0 1 -8-8zm18 10v12h-2v-12zm-19 16a1 1 0 1 1 1-1 1 1 0 0 1 -1 1zm4-2h4v10h-4zm-2 12h6v2h-6zm14 2h-6v-2h6zm-6-4v-10h4v10zm8-8a1 1 0 1 1 1-1 1 1 0 0 1 -1 1zm-3.026-18a10.053 10.053 0 0 0 3.026-3.67v3.67zm3.026-20v7.67a9.978 9.978 0 0 0 -18 0v-7.67zm-18 16.33a10.053 10.053 0 0 0 3.026 3.67h-3.026z" fill="url(#i)"/><path d="m32 16a6.006 6.006 0 0 0 -6 6 1 1 0 0 0 2 0 4 4 0 0 1 4-4 1 1 0 0 0 0-2z" fill="url(#j)"/><path d="m28 34h2v2h-2z" fill="url(#i)"/><path d="m34 34h2v2h-2z" fill="url(#i)"/><path d="m36 37h-8v6h8zm-2 4h-4v-2h4z" fill="url(#k)"/><path d="m2 49h17v2h-17z" fill="url(#l)"/><path d="m62 51v-2h-3v-10h-2v-10h-2v-4h-2v4h-2v10h-2v10h-3v2zm-9-20h2v8h-2zm-2 10h6v8h-6z" fill="url(#m)"/></svg>
