<?xml version="1.0"?>
<svg xmlns="http://www.w3.org/2000/svg" xmlns:xlink="http://www.w3.org/1999/xlink" viewBox="0 0 64 64" width="512" height="512"><linearGradient id="a" gradientUnits="userSpaceOnUse" x1="2.379" x2="61.97" y1="44" y2="44"><stop offset="0" stop-color="#4761ac"/><stop offset="1" stop-color="#54c2ef"/></linearGradient><linearGradient id="b" x1="2.379" x2="61.97" xlink:href="#a" y1="7" y2="7"/><linearGradient id="c" x1="2.379" x2="61.97" xlink:href="#a" y1="17" y2="17"/><linearGradient id="d" x1="2.379" x2="61.97" xlink:href="#a" y1="9" y2="9"/><linearGradient id="e" x1="2.379" x2="61.97" xlink:href="#a" y1="13" y2="13"/><linearGradient id="f" x1="2.379" x2="61.97" xlink:href="#a" y1="11" y2="11"/><linearGradient id="g" x1="2.379" x2="61.97" xlink:href="#a" y1="25" y2="25"/><linearGradient id="h" x1="2.379" x2="61.97" xlink:href="#a" y1="29" y2="29"/><linearGradient id="i" x1="2.379" x2="61.97" xlink:href="#a" y1="27" y2="27"/><linearGradient id="j" x1="2.379" x2="61.97" xlink:href="#a" y1="37" y2="37"/><linearGradient id="k" x1="2.379" x2="61.97" xlink:href="#a" y1="33" y2="33"/><linearGradient id="l" x1="2.379" x2="61.97" xlink:href="#a" y1="54.5" y2="54.5"/><linearGradient id="m" x1="2.379" x2="61.97" xlink:href="#a" y1="35" y2="35"/><linearGradient id="n" x1="2.379" x2="61.97" xlink:href="#a" y1="56" y2="56"/><linearGradient id="o" x1="2.379" x2="61.97" xlink:href="#a" y1="54" y2="54"/><linearGradient id="p" x1="2.379" x2="61.97" xlink:href="#a" y1="18.5" y2="18.5"/><linearGradient id="q" x1="2.379" x2="61.97" xlink:href="#a" y1="16" y2="16"/><path d="m8.679 47.42a8.994 8.994 0 0 0 16.642 0c3.465-.52 6.679-1.52 6.679-3.42s-3.214-2.9-6.679-3.42a8.994 8.994 0 0 0 -16.642 0c-3.465.52-6.679 1.52-6.679 3.42s3.214 2.9 6.679 3.42zm8.321 3.58a6.992 6.992 0 0 1 -5.923-3.287c2.8.268 5.31.287 5.923.287s3.125-.019 5.923-.287a6.992 6.992 0 0 1 -5.923 3.287zm-7-7a6.987 6.987 0 0 1 .194-1.608 55.529 55.529 0 0 1 6.806-.392 55.529 55.529 0 0 1 6.806.392 6.761 6.761 0 0 1 0 3.216 55.529 55.529 0 0 1 -6.806.392 55.529 55.529 0 0 1 -6.806-.392 6.987 6.987 0 0 1 -.194-1.608zm19.916 0a10.355 10.355 0 0 1 -4.02 1.294 8.1 8.1 0 0 0 0-2.588 10.355 10.355 0 0 1 4.02 1.294zm-12.916-7a6.992 6.992 0 0 1 5.923 3.287c-2.798-.268-5.31-.287-5.923-.287s-3.125.019-5.923.287a6.992 6.992 0 0 1 5.923-3.287zm-8.9 5.706a8.1 8.1 0 0 0 0 2.588 10.355 10.355 0 0 1 -4.016-1.294 10.355 10.355 0 0 1 4.016-1.294z" fill="url(#a)"/><path d="m3 8a3 3 0 0 1 3 3 1 1 0 0 0 2 0 3 3 0 0 1 3-3 1 1 0 0 0 0-2 3 3 0 0 1 -3-3 1 1 0 0 0 -2 0 3 3 0 0 1 -3 3 1 1 0 0 0 0 2zm4-2a5.07 5.07 0 0 0 1 1 5.07 5.07 0 0 0 -1 1 5.07 5.07 0 0 0 -1-1 5.07 5.07 0 0 0 1-1z" fill="url(#b)"/><path d="m10 17a1 1 0 0 0 1 1 3 3 0 0 1 3 3 1 1 0 0 0 2 0 3 3 0 0 1 3-3 1 1 0 0 0 0-2 3 3 0 0 1 -3-3 1 1 0 0 0 -2 0 3 3 0 0 1 -3 3 1 1 0 0 0 -1 1zm5-1a5.07 5.07 0 0 0 1 1 5.07 5.07 0 0 0 -1 1 5.07 5.07 0 0 0 -1-1 5.07 5.07 0 0 0 1-1z" fill="url(#c)"/><path d="m29 8h2v2h-2z" fill="url(#d)"/><path d="m29 12h2v2h-2z" fill="url(#e)"/><path d="m27 10h2v2h-2z" fill="url(#f)"/><path d="m31 10h2v2h-2z" fill="url(#f)"/><path d="m13 24h2v2h-2z" fill="url(#g)"/><path d="m13 28h2v2h-2z" fill="url(#h)"/><path d="m11 26h2v2h-2z" fill="url(#i)"/><path d="m15 26h2v2h-2z" fill="url(#i)"/><path d="m24.035 31.226a.783.783 0 0 0 .03.105 1 1 0 0 0 .116.228c.01.015.013.033.025.048l13 17a1 1 0 0 0 .728.391h.066a1 1 0 0 0 .707-.293l1.293-1.291 3.293 3.293a1 1 0 0 0 1.414 0l6-6a1 1 0 0 0 0-1.414l-3.293-3.293 1.793-1.793a1 1 0 0 0 -.126-1.521l-17.5-12.5c-.018-.013-.04-.016-.058-.028a1.013 1.013 0 0 0 -.2-.1 1.08 1.08 0 0 0 -.111-.032c-.023 0-.043-.016-.065-.019l-7-1a1 1 0 0 0 -1.132 1.132l1 7c-.001.032.013.061.02.087zm24.551 12.774-4.586 4.586-2.586-2.586 4.586-4.586zm-5.586-2.414-3.293-3.293a1 1 0 0 0 -1.414 1.414l3.293 3.293-3.486 3.485-11.775-15.4 4.782-4.782 15.85 11.321zm-14.121-15.879-3.172 3.172-.528-3.7z" fill="url(#j)"/><path d="m30 33a3 3 0 1 0 3-3 3 3 0 0 0 -3 3zm3-1a1 1 0 1 1 -1 1 1 1 0 0 1 1-1z" fill="url(#k)"/><path d="m47.014 48.835-1 6a1 1 0 0 0 .743 1.135l3.894.973 9.9 4.952a1 1 0 0 0 1.3-1.425l-4.9-7.845-.971-4.825a1 1 0 0 0 -1.122-.794l-7 1a1 1 0 0 0 -.844.829zm1.852 1.051 5.339-.762.815 4.076a.985.985 0 0 0 .132.334l3.117 4.986-6.822-3.411a1 1 0 0 0 -.2-.075l-3.105-.776z" fill="url(#l)"/><path d="m54 34h2v2h-2z" fill="url(#m)"/><path d="m58 36h2v2h-2z" fill="url(#j)"/><path d="m24 55h2v2h-2z" fill="url(#n)"/><path d="m28 53h2v2h-2z" fill="url(#o)"/><path d="m52.555 19.168-3-2a1.06 1.06 0 0 0 -.239-.117l-2.776-.925-2.833-2.833a1 1 0 0 0 -1.262-.125l-3 2a1 1 0 0 0 -.415 1.075l1 4a1 1 0 0 0 .138.312l2 3a1 1 0 0 0 .832.445 1.019 1.019 0 0 0 .316-.051l2.846-.949h4.838a1 1 0 0 0 .9-.553l1-2a1 1 0 0 0 -.345-1.279zm-2.173 1.832h-4.382a1 1 0 0 0 -.316.051l-2.276.759-1.48-2.221-.787-3.148 1.732-1.154 2.42 2.42a1.013 1.013 0 0 0 .391.242l2.873.957 2.154 1.436z" fill="url(#p)"/><path d="m49 3a13 13 0 1 0 6.707 24.115l.026.09 1.167-.895c.031-.024.059-.052.089-.076.238-.186.467-.381.691-.583.089-.079.177-.158.263-.239.2-.194.4-.4.591-.6.093-.1.185-.2.274-.3.177-.2.345-.413.509-.627.086-.113.172-.225.254-.34.158-.221.308-.449.453-.681.069-.111.138-.221.2-.334.147-.252.284-.509.414-.771.046-.094.093-.189.137-.285.136-.29.259-.586.373-.887q.039-.1.075-.2c.119-.332.225-.668.317-1.011.011-.041.021-.081.031-.122q.142-.548.237-1.113v-.028l.157-.956-.03-.006c.033-.377.058-.756.058-1.142a13.015 13.015 0 0 0 -12.993-13.009zm8.7 6.288a.99.99 0 0 0 -.248-.183l-8-4a1.02 1.02 0 0 0 -.406-.1 10.977 10.977 0 0 1 8.654 4.283zm-1.86 1.248-.543 2.174-1.976-.659a.985.985 0 0 0 -.559-.021l-2.982.745-.742-3.711.551-1.654zm3.8 8.211a10.913 10.913 0 0 1 -1.07 2.659l-.02.033a10.951 10.951 0 0 1 -.719 1.093l-.12.161a11.278 11.278 0 0 1 -.892 1.029l-.783-2.739.705-2.819 2.9.567zm.323-1.992-4.7-.919-1.295 5.181 1.173 4.107a11 11 0 1 1 -6.141-20.124h.031a.989.989 0 0 0 -.414.074 1 1 0 0 0 -.566.608l-1 3a.989.989 0 0 0 -.031.512l1 5a1 1 0 0 0 1.223.774l3.717-.929 2.724.908a1 1 0 0 0 1.286-.706l1-4a.988.988 0 0 0 -.129-.76 10.926 10.926 0 0 1 2.159 6.519c0 .255-.021.505-.038.755z" fill="url(#q)"/></svg>
