<?xml version="1.0"?>
<svg xmlns="http://www.w3.org/2000/svg" xmlns:xlink="http://www.w3.org/1999/xlink" viewBox="0 0 64 64" width="512" height="512"><linearGradient id="a" gradientUnits="userSpaceOnUse" x1="2" x2="62.084" y1="31" y2="31"><stop offset="0" stop-color="#4761ac"/><stop offset="1" stop-color="#54c2ef"/></linearGradient><linearGradient id="b" x1="2" x2="62.084" xlink:href="#a" y1="12" y2="12"/><linearGradient id="c" x1="2" x2="62.084" xlink:href="#a" y1="3" y2="3"/><linearGradient id="d" x1="2" x2="62.084" xlink:href="#a" y1="7" y2="7"/><linearGradient id="e" x1="2" x2="62.084" xlink:href="#a" y1="5" y2="5"/><linearGradient id="f" x1="2" x2="62.084" xlink:href="#a" y1="52" y2="52"/><linearGradient id="g" x1="2" x2="62.084" xlink:href="#a" y1="55" y2="55"/><linearGradient id="h" x1="2" x2="62.084" xlink:href="#a" y1="11" y2="11"/><linearGradient id="i" x1="2" x2="62.084" xlink:href="#a" y1="61" y2="61"/><linearGradient id="j" x1="2" x2="62.084" xlink:href="#a" y1="57" y2="57"/><linearGradient id="k" x1="2" x2="62.084" xlink:href="#a" y1="59" y2="59"/><linearGradient id="l" x1="2" x2="62.084" xlink:href="#a" y1="40" y2="40"/><linearGradient id="m" x1="2" x2="62.084" xlink:href="#a" y1="42" y2="42"/><linearGradient id="n" x1="2" x2="62.084" xlink:href="#a" y1="20" y2="20"/><linearGradient id="o" x1="2" x2="62.084" xlink:href="#a" y1="22" y2="22"/><path d="m50.948 26.434a1 1 0 0 0 -.8-.671l-11.91-1.821-5.333-11.367a1 1 0 0 0 -1.81 0l-5.336 11.367-11.91 1.821a1 1 0 0 0 -.565 1.686l8.648 8.863-2.044 12.527a1 1 0 0 0 1.47 1.036l10.642-5.882 10.642 5.882a.988.988 0 0 0 .483.125 1 1 0 0 0 .987-1.161l-2.044-12.527 8.648-8.863a1 1 0 0 0 .232-1.015zm-10.664 8.842a1 1 0 0 0 -.271.86l1.794 10.993-9.324-5.153a1 1 0 0 0 -.966 0l-9.324 5.153 1.794-10.993a1 1 0 0 0 -.271-.86l-7.641-7.831 10.514-1.606a1 1 0 0 0 .754-.564l4.657-9.921 4.657 9.921a1 1 0 0 0 .754.564l10.514 1.606z" fill="url(#a)"/><path d="m6 16a1 1 0 0 0 2 0 3 3 0 0 1 3-3 1 1 0 0 0 0-2 3 3 0 0 1 -3-3 1 1 0 0 0 -2 0 3 3 0 0 1 -3 3 1 1 0 0 0 0 2 3 3 0 0 1 3 3zm1-5a5.017 5.017 0 0 0 1 1 5.017 5.017 0 0 0 -1 1 5.017 5.017 0 0 0 -1-1 5.017 5.017 0 0 0 1-1z" fill="url(#b)"/><path d="m16 2h2v2h-2z" fill="url(#c)"/><path d="m16 6h2v2h-2z" fill="url(#d)"/><path d="m14 4h2v2h-2z" fill="url(#e)"/><path d="m18 4h2v2h-2z" fill="url(#e)"/><path d="m61 51a3 3 0 0 1 -3-3 1 1 0 0 0 -2 0 3 3 0 0 1 -3 3 1 1 0 0 0 0 2 3 3 0 0 1 3 3 1 1 0 0 0 2 0 3 3 0 0 1 3-3 1 1 0 0 0 0-2zm-4 2a5.017 5.017 0 0 0 -1-1 5.017 5.017 0 0 0 1-1 5.017 5.017 0 0 0 1 1 5.017 5.017 0 0 0 -1 1z" fill="url(#f)"/><path d="m12 56a3 3 0 0 1 3 3 1 1 0 0 0 2 0 3 3 0 0 1 3-3 1 1 0 0 0 0-2 3 3 0 0 1 -3-3 1 1 0 0 0 -2 0 3 3 0 0 1 -3 3 1 1 0 0 0 0 2zm4-2a5.017 5.017 0 0 0 1 1 5.017 5.017 0 0 0 -1 1 5.017 5.017 0 0 0 -1-1 5.017 5.017 0 0 0 1-1z" fill="url(#g)"/><path d="m54 11a1 1 0 0 0 -1-1 3 3 0 0 1 -3-3 1 1 0 0 0 -2 0 3 3 0 0 1 -3 3 1 1 0 0 0 0 2 3 3 0 0 1 3 3 1 1 0 0 0 2 0 3 3 0 0 1 3-3 1 1 0 0 0 1-1zm-5 1a5.017 5.017 0 0 0 -1-1 5.017 5.017 0 0 0 1-1 5.017 5.017 0 0 0 1 1 5.017 5.017 0 0 0 -1 1z" fill="url(#h)"/><path d="m46 60h2v2h-2z" fill="url(#i)"/><path d="m46 56h2v2h-2z" fill="url(#j)"/><path d="m48 58h2v2h-2z" fill="url(#k)"/><path d="m44 58h2v2h-2z" fill="url(#k)"/><path d="m6 39h2v2h-2z" fill="url(#l)"/><path d="m10 41h2v2h-2z" fill="url(#m)"/><path d="m54 19h2v2h-2z" fill="url(#n)"/><path d="m58 21h2v2h-2z" fill="url(#o)"/></svg>
